<svg x="0px" y="0px" width="98.148px" height="98.148px" viewBox="0 0 98.148 98.148" style="enable-background:new 0 0 98.148 98.148;" xml:space="preserve"><g><path d="M0.587,33.457l47.072,47.075c0.75,0.75,2.078,0.75,2.828,0l47.076-47.076c0.375-0.375,0.586-0.884,0.586-1.414c0-0.53-0.211-1.039-0.586-1.414L84.575,17.641c-0.391-0.391-0.901-0.586-1.414-0.586c-0.512,0-1.022,0.195-1.414,0.586L49.074,50.314L16.399,17.642c-0.75-0.751-2.078-0.75-2.828,0L0.587,30.629C-0.195,31.41-0.195,32.676,0.587,33.457z"/></g>
</svg>
